 <mxfile host="65bd71144e">
     <diagram name="JUST WORK Complete Site Visualization" id="complete-site">
         <mxGraphModel dx="2400" dy="1600" grid="0" gridSize="10" guides="0" tooltips="1" connect="1" arrows="1" fold="1" page="0" pageScale="1" pageWidth="3000" pageHeight="2000" math="0" shadow="0">
             <root>
                 <mxCell id="0"/>
                 <mxCell id="1" parent="0"/>
                 
                 <!-- SECTION 1: SITE STRUCTURE (Top Left) -->
                 <mxCell id="structure-title" value="SITE ARCHITECTURE" style="text;html=1;strokeColor=none;fillColor=none;align=center;verticalAlign=middle;whiteSpace=wrap;rounded=0;fontSize=24;fontStyle=1;fontColor=#1e40af;" vertex="1" parent="1">
                     <mxGeometry x="50" y="20" width="300" height="40" as="geometry"/>
                 </mxCell>
                <mxCell id="app-container" value="🌐 JUST WORK&#10;Company Directory Site" style="rounded=1;whiteSpace=wrap;html=1;fillColor=#3b82f6;strokeColor=#1e40af;fontColor=#ffffff;fontSize=16;fontStyle=1;" parent="1" vertex="1">
                    <mxGeometry x="480" y="40" width="200" height="80" as="geometry"/>
                </mxCell>
                <mxCell id="router" value="📱 React Router&#10;Main App Component" style="rounded=1;whiteSpace=wrap;html=1;fillColor=#f3f4f6;strokeColor=#6b7280;fontSize=12;" parent="1" vertex="1">
                    <mxGeometry x="480" y="160" width="200" height="60" as="geometry"/>
                </mxCell>
                <mxCell id="home-route" value="🏠 Home Page Route&#10;(/)" style="rounded=1;whiteSpace=wrap;html=1;fillColor=#e0f2fe;strokeColor=#0284c7;fontSize=12;" parent="1" vertex="1">
                    <mxGeometry x="240" y="280" width="160" height="60" as="geometry"/>
                </mxCell>
                <mxCell id="detail-route" value="🏢 Company Detail Route&#10;(/company/:id)" style="rounded=1;whiteSpace=wrap;html=1;fillColor=#e0f2fe;strokeColor=#0284c7;fontSize=12;" parent="1" vertex="1">
                    <mxGeometry x="720" y="280" width="160" height="60" as="geometry"/>
                </mxCell>
                <mxCell id="header" value="📋 Header Section&#10;JUST WORK Title" style="rounded=1;whiteSpace=wrap;html=1;fillColor=#fef3c7;strokeColor=#f59e0b;fontSize=11;" parent="1" vertex="1">
                    <mxGeometry x="40" y="400" width="120" height="50" as="geometry"/>
                </mxCell>
                <mxCell id="search-bar" value="🔍 Search Bar Component&#10;Text Input + Industry Filter" style="rounded=1;whiteSpace=wrap;html=1;fillColor=#fef3c7;strokeColor=#f59e0b;fontSize=11;" parent="1" vertex="1">
                    <mxGeometry x="180" y="400" width="140" height="50" as="geometry"/>
                </mxCell>
                <mxCell id="company-grid" value="📊 Company Grid Component&#10;Card Layout Display" style="rounded=1;whiteSpace=wrap;html=1;fillColor=#fef3c7;strokeColor=#f59e0b;fontSize=11;" parent="1" vertex="1">
                    <mxGeometry x="340" y="400" width="140" height="50" as="geometry"/>
                </mxCell>
                <mxCell id="active-filters" value="🏷️ Active Filters Display&#10;Search + Industry Tags" style="rounded=1;whiteSpace=wrap;html=1;fillColor=#fde68a;strokeColor=#d97706;fontSize=10;" parent="1" vertex="1">
                    <mxGeometry x="120" y="480" width="120" height="40" as="geometry"/>
                </mxCell>
                <mxCell id="results-counter" value="📈 Results Counter&#10;X companies found" style="rounded=1;whiteSpace=wrap;html=1;fillColor=#fde68a;strokeColor=#d97706;fontSize=10;" parent="1" vertex="1">
                    <mxGeometry x="260" y="480" width="120" height="40" as="geometry"/>
                </mxCell>
                <mxCell id="company-cards" value="💳 Company Cards&#10;(350px min-width grid)" style="rounded=1;whiteSpace=wrap;html=1;fillColor=#fed7aa;strokeColor=#ea580c;fontSize=11;" parent="1" vertex="1">
                    <mxGeometry x="300" y="540" width="140" height="50" as="geometry"/>
                </mxCell>
                <mxCell id="infinite-scroll" value="♾️ Infinite Scroll Sentinel&#10;Load More Trigger" style="rounded=1;whiteSpace=wrap;html=1;fillColor=#fed7aa;strokeColor=#ea580c;fontSize=11;" parent="1" vertex="1">
                    <mxGeometry x="460" y="540" width="140" height="50" as="geometry"/>
                </mxCell>
                <mxCell id="card-content" value="Card Contents:" style="text;html=1;strokeColor=none;fillColor=none;align=left;verticalAlign=top;whiteSpace=wrap;rounded=0;fontSize=10;fontStyle=1;" parent="1" vertex="1">
                    <mxGeometry x="240" y="620" width="80" height="20" as="geometry"/>
                </mxCell>
                <mxCell id="company-name" value="🏢 Company Name + HQ Badge" style="rounded=1;whiteSpace=wrap;html=1;fillColor=#fecaca;strokeColor=#dc2626;fontSize=9;" parent="1" vertex="1">
                    <mxGeometry x="240" y="640" width="100" height="30" as="geometry"/>
                </mxCell>
                <mxCell id="industry" value="🏭 Industry Category" style="rounded=1;whiteSpace=wrap;html=1;fillColor=#fecaca;strokeColor=#dc2626;fontSize=9;" parent="1" vertex="1">
                    <mxGeometry x="350" y="640" width="100" height="30" as="geometry"/>
                </mxCell>
                <mxCell id="location" value="📍 Location Info&#10;City, State" style="rounded=1;whiteSpace=wrap;html=1;fillColor=#fecaca;strokeColor=#dc2626;fontSize=9;" parent="1" vertex="1">
                    <mxGeometry x="460" y="640" width="100" height="30" as="geometry"/>
                </mxCell>
                <mxCell id="employees" value="👥 Employee Count" style="rounded=1;whiteSpace=wrap;html=1;fillColor=#fecaca;strokeColor=#dc2626;fontSize=9;" parent="1" vertex="1">
                    <mxGeometry x="240" y="680" width="100" height="30" as="geometry"/>
                </mxCell>
                <mxCell id="sales" value="💰 Sales Revenue" style="rounded=1;whiteSpace=wrap;html=1;fillColor=#fecaca;strokeColor=#dc2626;fontSize=9;" parent="1" vertex="1">
                    <mxGeometry x="350" y="680" width="100" height="30" as="geometry"/>
                </mxCell>
                <mxCell id="description" value="📝 Description Preview&#10;(300 char limit)" style="rounded=1;whiteSpace=wrap;html=1;fillColor=#fecaca;strokeColor=#dc2626;fontSize=9;" parent="1" vertex="1">
                    <mxGeometry x="460" y="680" width="100" height="30" as="geometry"/>
                </mxCell>
                <mxCell id="view-details" value="➡️ View Details Link" style="rounded=1;whiteSpace=wrap;html=1;fillColor=#fecaca;strokeColor=#dc2626;fontSize=9;" parent="1" vertex="1">
                    <mxGeometry x="350" y="720" width="100" height="30" as="geometry"/>
                </mxCell>
                <mxCell id="detail-header" value="🔙 Back Button + Header&#10;Company Name + Badges" style="rounded=1;whiteSpace=wrap;html=1;fillColor=#dcfce7;strokeColor=#16a34a;fontSize=11;" parent="1" vertex="1">
                    <mxGeometry x="680" y="400" width="140" height="50" as="geometry"/>
                </mxCell>
                <mxCell id="company-info" value="ℹ️ Company Information&#10;Industry, Ownership, Ticker" style="rounded=1;whiteSpace=wrap;html=1;fillColor=#dcfce7;strokeColor=#16a34a;fontSize=11;" parent="1" vertex="1">
                    <mxGeometry x="840" y="400" width="140" height="50" as="geometry"/>
                </mxCell>
                <mxCell id="contact-info" value="📞 Contact Information&#10;Address, Phone, Website" style="rounded=1;whiteSpace=wrap;html=1;fillColor=#dcfce7;strokeColor=#16a34a;fontSize=11;" parent="1" vertex="1">
                    <mxGeometry x="680" y="480" width="140" height="50" as="geometry"/>
                </mxCell>
                <mxCell id="business-desc" value="📄 Business Description&#10;Full Text Display" style="rounded=1;whiteSpace=wrap;html=1;fillColor=#dcfce7;strokeColor=#16a34a;fontSize=11;" parent="1" vertex="1">
                    <mxGeometry x="840" y="480" width="140" height="50" as="geometry"/>
                </mxCell>
                <mxCell id="contact-persons" value="👤 Contact Persons Section&#10;Employee Directory" style="rounded=1;whiteSpace=wrap;html=1;fillColor=#dcfce7;strokeColor=#16a34a;fontSize=11;" parent="1" vertex="1">
                    <mxGeometry x="680" y="560" width="140" height="50" as="geometry"/>
                </mxCell>
                <mxCell id="additional-info" value="📋 Additional Information&#10;NAICS, SIC, Tradestyle" style="rounded=1;whiteSpace=wrap;html=1;fillColor=#dcfce7;strokeColor=#16a34a;fontSize=11;" parent="1" vertex="1">
                    <mxGeometry x="840" y="560" width="140" height="50" as="geometry"/>
                </mxCell>
                <mxCell id="contact-cards" value="👥 Contact Cards Grid&#10;Clickable Employee Cards" style="rounded=1;whiteSpace=wrap;html=1;fillColor=#bbf7d0;strokeColor=#059669;fontSize=10;" parent="1" vertex="1">
                    <mxGeometry x="640" y="640" width="120" height="40" as="geometry"/>
                </mxCell>
                <mxCell id="contact-modal" value="📧 Contact Modal&#10;Detailed Contact Info" style="rounded=1;whiteSpace=wrap;html=1;fillColor=#bbf7d0;strokeColor=#059669;fontSize=10;" parent="1" vertex="1">
                    <mxGeometry x="780" y="640" width="120" height="40" as="geometry"/>
                </mxCell>
                <mxCell id="linkedin-search" value="🔗 LinkedIn Search Button" style="rounded=1;whiteSpace=wrap;html=1;fillColor=#bbf7d0;strokeColor=#059669;fontSize=10;" parent="1" vertex="1">
                    <mxGeometry x="920" y="640" width="120" height="40" as="geometry"/>
                </mxCell>
                <mxCell id="conn1" style="edgeStyle=orthogonalEdgeStyle;rounded=0;orthogonalLoop=1;jettySize=auto;html=1;" parent="1" source="app-container" target="router" edge="1">
                    <mxGeometry relative="1" as="geometry"/>
                </mxCell>
                <mxCell id="conn2" style="edgeStyle=orthogonalEdgeStyle;rounded=0;orthogonalLoop=1;jettySize=auto;html=1;" parent="1" source="router" target="home-route" edge="1">
                    <mxGeometry relative="1" as="geometry"/>
                </mxCell>
                <mxCell id="conn3" style="edgeStyle=orthogonalEdgeStyle;rounded=0;orthogonalLoop=1;jettySize=auto;html=1;" parent="1" source="router" target="detail-route" edge="1">
                    <mxGeometry relative="1" as="geometry"/>
                </mxCell>
                <mxCell id="conn4" style="edgeStyle=orthogonalEdgeStyle;rounded=0;orthogonalLoop=1;jettySize=auto;html=1;" parent="1" source="home-route" target="header" edge="1">
                    <mxGeometry relative="1" as="geometry"/>
                </mxCell>
                <mxCell id="conn5" style="edgeStyle=orthogonalEdgeStyle;rounded=0;orthogonalLoop=1;jettySize=auto;html=1;" parent="1" source="home-route" target="search-bar" edge="1">
                    <mxGeometry relative="1" as="geometry"/>
                </mxCell>
                <mxCell id="conn6" style="edgeStyle=orthogonalEdgeStyle;rounded=0;orthogonalLoop=1;jettySize=auto;html=1;" parent="1" source="home-route" target="company-grid" edge="1">
                    <mxGeometry relative="1" as="geometry"/>
                </mxCell>
                <mxCell id="conn7" style="edgeStyle=orthogonalEdgeStyle;rounded=0;orthogonalLoop=1;jettySize=auto;html=1;" parent="1" source="search-bar" target="active-filters" edge="1">
                    <mxGeometry relative="1" as="geometry"/>
                </mxCell>
                <mxCell id="conn8" style="edgeStyle=orthogonalEdgeStyle;rounded=0;orthogonalLoop=1;jettySize=auto;html=1;" parent="1" source="search-bar" target="results-counter" edge="1">
                    <mxGeometry relative="1" as="geometry"/>
                </mxCell>
                <mxCell id="conn9" style="edgeStyle=orthogonalEdgeStyle;rounded=0;orthogonalLoop=1;jettySize=auto;html=1;" parent="1" source="company-grid" target="company-cards" edge="1">
                    <mxGeometry relative="1" as="geometry"/>
                </mxCell>
                <mxCell id="conn10" style="edgeStyle=orthogonalEdgeStyle;rounded=0;orthogonalLoop=1;jettySize=auto;html=1;" parent="1" source="company-grid" target="infinite-scroll" edge="1">
                    <mxGeometry relative="1" as="geometry"/>
                </mxCell>
                <mxCell id="conn11" style="edgeStyle=orthogonalEdgeStyle;rounded=0;orthogonalLoop=1;jettySize=auto;html=1;" parent="1" source="detail-route" target="detail-header" edge="1">
                    <mxGeometry relative="1" as="geometry"/>
                </mxCell>
                <mxCell id="conn12" style="edgeStyle=orthogonalEdgeStyle;rounded=0;orthogonalLoop=1;jettySize=auto;html=1;" parent="1" source="detail-route" target="company-info" edge="1">
                    <mxGeometry relative="1" as="geometry"/>
                </mxCell>
                <mxCell id="conn13" style="edgeStyle=orthogonalEdgeStyle;rounded=0;orthogonalLoop=1;jettySize=auto;html=1;" parent="1" source="detail-route" target="contact-info" edge="1">
                    <mxGeometry relative="1" as="geometry"/>
                </mxCell>
                <mxCell id="conn14" style="edgeStyle=orthogonalEdgeStyle;rounded=0;orthogonalLoop=1;jettySize=auto;html=1;" parent="1" source="detail-route" target="business-desc" edge="1">
                    <mxGeometry relative="1" as="geometry"/>
                </mxCell>
                <mxCell id="conn15" style="edgeStyle=orthogonalEdgeStyle;rounded=0;orthogonalLoop=1;jettySize=auto;html=1;" parent="1" source="detail-route" target="contact-persons" edge="1">
                    <mxGeometry relative="1" as="geometry"/>
                </mxCell>
                <mxCell id="conn16" style="edgeStyle=orthogonalEdgeStyle;rounded=0;orthogonalLoop=1;jettySize=auto;html=1;" parent="1" source="detail-route" target="additional-info" edge="1">
                    <mxGeometry relative="1" as="geometry"/>
                </mxCell>
                <mxCell id="conn17" style="edgeStyle=orthogonalEdgeStyle;rounded=0;orthogonalLoop=1;jettySize=auto;html=1;" parent="1" source="contact-persons" target="contact-cards" edge="1">
                    <mxGeometry relative="1" as="geometry"/>
                </mxCell>
                <mxCell id="conn18" style="edgeStyle=orthogonalEdgeStyle;rounded=0;orthogonalLoop=1;jettySize=auto;html=1;" parent="1" source="contact-persons" target="contact-modal" edge="1">
                    <mxGeometry relative="1" as="geometry"/>
                </mxCell>
                                 <mxCell id="conn19" style="edgeStyle=orthogonalEdgeStyle;rounded=0;orthogonalLoop=1;jettySize=auto;html=1;" parent="1" source="contact-modal" target="linkedin-search" edge="1">
                     <mxGeometry relative="1" as="geometry"/>
                 </mxCell>
                 
                 <!-- SECTION 2: HOME PAGE LAYOUT (Top Right) -->
                 <mxCell id="home-title" value="HOME PAGE LAYOUT" style="text;html=1;strokeColor=none;fillColor=none;align=center;verticalAlign=middle;whiteSpace=wrap;rounded=0;fontSize=24;fontStyle=1;fontColor=#059669;" vertex="1" parent="1">
                     <mxGeometry x="1200" y="20" width="300" height="40" as="geometry"/>
                 </mxCell>
                 
                 <!-- Browser Frame for Home Page -->
                 <mxCell id="home-browser-frame" value="" style="rounded=0;whiteSpace=wrap;html=1;fillColor=#f8f9fa;strokeColor=#dee2e6;strokeWidth=2;" vertex="1" parent="1">
                     <mxGeometry x="1100" y="80" width="800" height="600" as="geometry"/>
                 </mxCell>
                 
                 <!-- Header -->
                 <mxCell id="home-main-header" value="JUST WORK" style="rounded=0;whiteSpace=wrap;html=1;fillColor=#ffffff;strokeColor=none;fontSize=20;fontStyle=1;fontColor=#333333;align=center;" vertex="1" parent="1">
                     <mxGeometry x="1100" y="80" width="800" height="50" as="geometry"/>
                 </mxCell>
                 
                 <!-- Search Section -->
                 <mxCell id="home-search-input" value="Search companies..." style="rounded=1;whiteSpace=wrap;html=1;fillColor=#ffffff;strokeColor=#e5e7eb;fontSize=10;fontColor=#9ca3af;align=left;spacingLeft=10;" vertex="1" parent="1">
                     <mxGeometry x="1150" y="150" width="400" height="25" as="geometry"/>
                 </mxCell>
                 
                 <mxCell id="home-industry-dropdown" value="All Industries ▼" style="rounded=1;whiteSpace=wrap;html=1;fillColor=#ffffff;strokeColor=#e5e7eb;fontSize=10;fontColor=#333333;align=left;spacingLeft=10;" vertex="1" parent="1">
                     <mxGeometry x="1600" y="150" width="120" height="25" as="geometry"/>
                 </mxCell>
                 
                 <mxCell id="home-results-text" value="50 companies found" style="text;html=1;strokeColor=none;fillColor=none;align=left;verticalAlign=middle;whiteSpace=wrap;rounded=0;fontSize=10;fontColor=#6b7280;" vertex="1" parent="1">
                     <mxGeometry x="1150" y="185" width="150" height="15" as="geometry"/>
                 </mxCell>
                 
                 <!-- Company Cards Grid (3x2) -->
                 <!-- Row 1 -->
                 <mxCell id="home-card1" value="" style="rounded=1;whiteSpace=wrap;html=1;fillColor=#ffffff;strokeColor=#e5e7eb;shadow=1;" vertex="1" parent="1">
                     <mxGeometry x="1150" y="220" width="200" height="140" as="geometry"/>
                 </mxCell>
                 <mxCell id="home-card1-title" value="02 Investar LLC" style="text;html=1;strokeColor=none;fillColor=none;align=left;verticalAlign=top;whiteSpace=wrap;rounded=0;fontSize=10;fontStyle=1;fontColor=#333333;" vertex="1" parent="1">
                     <mxGeometry x="1160" y="230" width="180" height="15" as="geometry"/>
                 </mxCell>
                 <mxCell id="home-card1-industry" value="Computer Programming" style="text;html=1;strokeColor=none;fillColor=none;align=left;verticalAlign=top;whiteSpace=wrap;rounded=0;fontSize=8;fontColor=#6b7280;" vertex="1" parent="1">
                     <mxGeometry x="1160" y="245" width="180" height="12" as="geometry"/>
                 </mxCell>
                 <mxCell id="home-card1-location" value="Minnetonka, Minnesota" style="text;html=1;strokeColor=none;fillColor=none;align=left;verticalAlign=top;whiteSpace=wrap;rounded=0;fontSize=8;fontColor=#333333;" vertex="1" parent="1">
                     <mxGeometry x="1160" y="260" width="180" height="12" as="geometry"/>
                 </mxCell>
                 <mxCell id="home-card1-employees" value="Employees: 27" style="text;html=1;strokeColor=none;fillColor=none;align=left;verticalAlign=top;whiteSpace=wrap;rounded=0;fontSize=8;fontColor=#333333;" vertex="1" parent="1">
                     <mxGeometry x="1160" y="275" width="180" height="12" as="geometry"/>
                 </mxCell>
                 <mxCell id="home-card1-sales" value="Sales: $1.2M" style="text;html=1;strokeColor=none;fillColor=none;align=left;verticalAlign=top;whiteSpace=wrap;rounded=0;fontSize=8;fontColor=#333333;" vertex="1" parent="1">
                     <mxGeometry x="1160" y="290" width="180" height="12" as="geometry"/>
                 </mxCell>
                 <mxCell id="home-card1-desc" value="Computer programming services..." style="text;html=1;strokeColor=none;fillColor=none;align=left;verticalAlign=top;whiteSpace=wrap;rounded=0;fontSize=7;fontColor=#6b7280;" vertex="1" parent="1">
                     <mxGeometry x="1160" y="305" width="180" height="30" as="geometry"/>
                 </mxCell>
                 <mxCell id="home-card1-link" value="View Details →" style="text;html=1;strokeColor=none;fillColor=none;align=right;verticalAlign=bottom;whiteSpace=wrap;rounded=0;fontSize=8;fontColor=#3b82f6;" vertex="1" parent="1">
                     <mxGeometry x="1260" y="340" width="80" height="12" as="geometry"/>
                 </mxCell>
                 
                 <mxCell id="home-card2" value="" style="rounded=1;whiteSpace=wrap;html=1;fillColor=#ffffff;strokeColor=#e5e7eb;shadow=1;" vertex="1" parent="1">
                     <mxGeometry x="1370" y="220" width="200" height="140" as="geometry"/>
                 </mxCell>
                 <mxCell id="home-card2-title" value="10,000 LAKES ELECTRIC" style="text;html=1;strokeColor=none;fillColor=none;align=left;verticalAlign=top;whiteSpace=wrap;rounded=0;fontSize=10;fontStyle=1;fontColor=#333333;" vertex="1" parent="1">
                     <mxGeometry x="1380" y="230" width="180" height="15" as="geometry"/>
                 </mxCell>
                 <mxCell id="home-card2-industry" value="Electricity Generation" style="text;html=1;strokeColor=none;fillColor=none;align=left;verticalAlign=top;whiteSpace=wrap;rounded=0;fontSize=8;fontColor=#6b7280;" vertex="1" parent="1">
                     <mxGeometry x="1380" y="245" width="180" height="12" as="geometry"/>
                 </mxCell>
                 <mxCell id="home-card2-location" value="Ottertail, Minnesota" style="text;html=1;strokeColor=none;fillColor=none;align=left;verticalAlign=top;whiteSpace=wrap;rounded=0;fontSize=8;fontColor=#333333;" vertex="1" parent="1">
                     <mxGeometry x="1380" y="260" width="180" height="12" as="geometry"/>
                 </mxCell>
                 
                 <mxCell id="home-card3" value="" style="rounded=1;whiteSpace=wrap;html=1;fillColor=#ffffff;strokeColor=#e5e7eb;shadow=1;" vertex="1" parent="1">
                     <mxGeometry x="1590" y="220" width="200" height="140" as="geometry"/>
                 </mxCell>
                 <mxCell id="home-card3-title" value="100 WATTS ELECTRIC" style="text;html=1;strokeColor=none;fillColor=none;align=left;verticalAlign=top;whiteSpace=wrap;rounded=0;fontSize=10;fontStyle=1;fontColor=#333333;" vertex="1" parent="1">
                     <mxGeometry x="1600" y="230" width="180" height="15" as="geometry"/>
                 </mxCell>
                 <mxCell id="home-card3-industry" value="Electricity Generation" style="text;html=1;strokeColor=none;fillColor=none;align=left;verticalAlign=top;whiteSpace=wrap;rounded=0;fontSize=8;fontColor=#6b7280;" vertex="1" parent="1">
                     <mxGeometry x="1600" y="245" width="180" height="12" as="geometry"/>
                 </mxCell>
                 
                 <!-- Row 2 -->
                 <mxCell id="home-card4" value="" style="rounded=1;whiteSpace=wrap;html=1;fillColor=#ffffff;strokeColor=#e5e7eb;shadow=1;" vertex="1" parent="1">
                     <mxGeometry x="1150" y="380" width="200" height="140" as="geometry"/>
                 </mxCell>
                 <mxCell id="home-card4-title" value="1029 BEAUTY BAR" style="text;html=1;strokeColor=none;fillColor=none;align=left;verticalAlign=top;whiteSpace=wrap;rounded=0;fontSize=10;fontStyle=1;fontColor=#333333;" vertex="1" parent="1">
                     <mxGeometry x="1160" y="390" width="180" height="15" as="geometry"/>
                 </mxCell>
                 <mxCell id="home-card4-industry" value="Associations" style="text;html=1;strokeColor=none;fillColor=none;align=left;verticalAlign=top;whiteSpace=wrap;rounded=0;fontSize=8;fontColor=#6b7280;" vertex="1" parent="1">
                     <mxGeometry x="1160" y="405" width="180" height="12" as="geometry"/>
                 </mxCell>
                 
                 <mxCell id="home-card5" value="" style="rounded=1;whiteSpace=wrap;html=1;fillColor=#ffffff;strokeColor=#e5e7eb;shadow=1;" vertex="1" parent="1">
                     <mxGeometry x="1370" y="380" width="200" height="140" as="geometry"/>
                 </mxCell>
                 <mxCell id="home-card5-title" value="10 ELECTRIC LLC" style="text;html=1;strokeColor=none;fillColor=none;align=left;verticalAlign=top;whiteSpace=wrap;rounded=0;fontSize=10;fontStyle=1;fontColor=#333333;" vertex="1" parent="1">
                     <mxGeometry x="1380" y="390" width="180" height="15" as="geometry"/>
                 </mxCell>
                 
                 <mxCell id="home-card6" value="" style="rounded=1;whiteSpace=wrap;html=1;fillColor=#ffffff;strokeColor=#e5e7eb;shadow=1;" vertex="1" parent="1">
                     <mxGeometry x="1590" y="380" width="200" height="140" as="geometry"/>
                 </mxCell>
                 <mxCell id="home-card6-title" value="10K LLC" style="text;html=1;strokeColor=none;fillColor=none;align=left;verticalAlign=top;whiteSpace=wrap;rounded=0;fontSize=10;fontStyle=1;fontColor=#333333;" vertex="1" parent="1">
                     <mxGeometry x="1600" y="390" width="180" height="15" as="geometry"/>
                 </mxCell>
                 
                 <!-- SECTION 3: COMPANY DETAIL LAYOUT (Bottom) -->
                 <mxCell id="detail-title" value="COMPANY DETAIL PAGE LAYOUT" style="text;html=1;strokeColor=none;fillColor=none;align=center;verticalAlign=middle;whiteSpace=wrap;rounded=0;fontSize=24;fontStyle=1;fontColor=#dc2626;" vertex="1" parent="1">
                     <mxGeometry x="400" y="750" width="500" height="40" as="geometry"/>
                 </mxCell>
                 
                 <!-- Detail Page Browser Frame -->
                 <mxCell id="detail-browser-frame" value="" style="rounded=0;whiteSpace=wrap;html=1;fillColor=#f8f9fa;strokeColor=#dee2e6;strokeWidth=2;" vertex="1" parent="1">
                     <mxGeometry x="200" y="820" width="900" height="700" as="geometry"/>
                 </mxCell>
                 
                 <!-- Header with Back Button -->
                 <mxCell id="detail-header-section" value="" style="rounded=0;whiteSpace=wrap;html=1;fillColor=#ffffff;strokeColor=none;" vertex="1" parent="1">
                     <mxGeometry x="200" y="820" width="900" height="50" as="geometry"/>
                 </mxCell>
                 
                 <mxCell id="detail-back-button" value="←" style="rounded=1;whiteSpace=wrap;html=1;fillColor=#ffffff;strokeColor=#e5e7eb;fontSize=16;fontColor=#333333;align=center;" vertex="1" parent="1">
                     <mxGeometry x="220" y="835" width="30" height="20" as="geometry"/>
                 </mxCell>
                 
                 <mxCell id="detail-company-name" value="02 Investar LLC" style="text;html=1;strokeColor=none;fillColor=none;align=center;verticalAlign=middle;whiteSpace=wrap;rounded=0;fontSize=18;fontStyle=1;fontColor=#333333;" vertex="1" parent="1">
                     <mxGeometry x="500" y="835" width="200" height="20" as="geometry"/>
                 </mxCell>
                 
                 <mxCell id="detail-private-badge" value="Private" style="rounded=1;whiteSpace=wrap;html=1;fillColor=#e0e7ff;strokeColor=#6366f1;fontSize=10;fontColor=#6366f1;align=center;" vertex="1" parent="1">
                     <mxGeometry x="1020" y="835" width="50" height="20" as="geometry"/>
                 </mxCell>
                 
                 <!-- Company Information Section -->
                 <mxCell id="detail-company-info-section" value="" style="rounded=1;whiteSpace=wrap;html=1;fillColor=#ffffff;strokeColor=#e5e7eb;shadow=1;" vertex="1" parent="1">
                     <mxGeometry x="250" y="900" width="350" height="150" as="geometry"/>
                 </mxCell>
                 
                 <mxCell id="detail-company-info-title" value="Company Information" style="text;html=1;strokeColor=none;fillColor=none;align=left;verticalAlign=top;whiteSpace=wrap;rounded=0;fontSize=12;fontStyle=1;fontColor=#333333;" vertex="1" parent="1">
                     <mxGeometry x="270" y="920" width="150" height="15" as="geometry"/>
                 </mxCell>
                 
                 <mxCell id="detail-industry-info" value="Industry: Computer Programming&#10;Ownership: Private&#10;Employees: 27&#10;Annual Sales: $1,200,000" style="text;html=1;strokeColor=none;fillColor=none;align=left;verticalAlign=top;whiteSpace=wrap;rounded=0;fontSize=10;fontColor=#333333;" vertex="1" parent="1">
                     <mxGeometry x="270" y="945" width="300" height="80" as="geometry"/>
                 </mxCell>
                 
                 <!-- Contact Information Section -->
                 <mxCell id="detail-contact-info-section" value="" style="rounded=1;whiteSpace=wrap;html=1;fillColor=#ffffff;strokeColor=#e5e7eb;shadow=1;" vertex="1" parent="1">
                     <mxGeometry x="650" y="900" width="350" height="150" as="geometry"/>
                 </mxCell>
                 
                 <mxCell id="detail-contact-info-title" value="Contact Information" style="text;html=1;strokeColor=none;fillColor=none;align=left;verticalAlign=top;whiteSpace=wrap;rounded=0;fontSize=12;fontStyle=1;fontColor=#333333;" vertex="1" parent="1">
                     <mxGeometry x="670" y="920" width="150" height="15" as="geometry"/>
                 </mxCell>
                 
                 <mxCell id="detail-contact-info" value="Address: 11500 Wayzata Blvd Ste 1242&#10;City: Minnetonka&#10;State: Minnesota&#10;Postal Code: 55305-2007" style="text;html=1;strokeColor=none;fillColor=none;align=left;verticalAlign=top;whiteSpace=wrap;rounded=0;fontSize=10;fontColor=#333333;" vertex="1" parent="1">
                     <mxGeometry x="670" y="945" width="300" height="80" as="geometry"/>
                 </mxCell>
                 
                 <!-- Business Description Section -->
                 <mxCell id="detail-business-desc-section" value="" style="rounded=1;whiteSpace=wrap;html=1;fillColor=#ffffff;strokeColor=#e5e7eb;shadow=1;" vertex="1" parent="1">
                     <mxGeometry x="250" y="1080" width="750" height="100" as="geometry"/>
                 </mxCell>
                 
                 <mxCell id="detail-business-desc-title" value="Business Description" style="text;html=1;strokeColor=none;fillColor=none;align=left;verticalAlign=top;whiteSpace=wrap;rounded=0;fontSize=12;fontStyle=1;fontColor=#333333;" vertex="1" parent="1">
                     <mxGeometry x="270" y="1100" width="150" height="15" as="geometry"/>
                 </mxCell>
                 
                 <mxCell id="detail-business-desc-text" value="02 Investar Llc is primarily engaged in providing computer programming services on a contract or fee basis. Establishments of this industry perform a variety of additional services, such as computer software design and analysis; modifications of custom software; and training in the use of custom software." style="text;html=1;strokeColor=none;fillColor=none;align=left;verticalAlign=top;whiteSpace=wrap;rounded=0;fontSize=10;fontColor=#333333;" vertex="1" parent="1">
                     <mxGeometry x="270" y="1125" width="700" height="45" as="geometry"/>
                 </mxCell>
                 
                 <!-- Contact Persons Section -->
                 <mxCell id="detail-contact-persons-section" value="" style="rounded=1;whiteSpace=wrap;html=1;fillColor=#ffffff;strokeColor=#e5e7eb;shadow=1;" vertex="1" parent="1">
                     <mxGeometry x="250" y="1210" width="750" height="100" as="geometry"/>
                 </mxCell>
                 
                 <mxCell id="detail-contact-persons-title" value="👤 Contact Information" style="text;html=1;strokeColor=none;fillColor=none;align=left;verticalAlign=top;whiteSpace=wrap;rounded=0;fontSize=12;fontStyle=1;fontColor=#333333;" vertex="1" parent="1">
                     <mxGeometry x="270" y="1230" width="150" height="15" as="geometry"/>
                 </mxCell>
                 
                 <mxCell id="detail-no-contacts-text" value="No contact information available for this company." style="text;html=1;strokeColor=none;fillColor=none;align=center;verticalAlign=middle;whiteSpace=wrap;rounded=0;fontSize=10;fontColor=#6b7280;fontStyle=2;" vertex="1" parent="1">
                     <mxGeometry x="450" y="1265" width="300" height="20" as="geometry"/>
                 </mxCell>
                 
                 <!-- Additional Information Section -->
                 <mxCell id="detail-additional-info-section" value="" style="rounded=1;whiteSpace=wrap;html=1;fillColor=#ffffff;strokeColor=#e5e7eb;shadow=1;" vertex="1" parent="1">
                     <mxGeometry x="250" y="1340" width="750" height="120" as="geometry"/>
                 </mxCell>
                 
                 <mxCell id="detail-additional-info-title" value="Additional Information" style="text;html=1;strokeColor=none;fillColor=none;align=left;verticalAlign=top;whiteSpace=wrap;rounded=0;fontSize=12;fontStyle=1;fontColor=#333333;" vertex="1" parent="1">
                     <mxGeometry x="270" y="1360" width="150" height="15" as="geometry"/>
                 </mxCell>
                 
                 <mxCell id="detail-additional-info" value="NAICS Description: N/A&#10;SIC Description: N/A&#10;Tradestyle: N/A" style="text;html=1;strokeColor=none;fillColor=none;align=left;verticalAlign=top;whiteSpace=wrap;rounded=0;fontSize=10;fontColor=#333333;" vertex="1" parent="1">
                     <mxGeometry x="270" y="1385" width="300" height="60" as="geometry"/>
                 </mxCell>
                 
             </root>
         </mxGraphModel>
     </diagram>
    <diagram name="Home Page Layout" id="home-layout">
                 <mxGraphModel dx="1098" dy="1033" grid="0" gridSize="10" guides="0" tooltips="1" connect="1" arrows="1" fold="1" page="0" pageScale="1" pageWidth="1400" pageHeight="1000" math="0" shadow="0">
            <root>
                <mxCell id="0"/>
                <mxCell id="1" parent="0"/>
                <mxCell id="browser-frame" value="" style="rounded=0;whiteSpace=wrap;html=1;fillColor=#f8f9fa;strokeColor=#dee2e6;strokeWidth=2;" parent="1" vertex="1">
                    <mxGeometry x="50" y="50" width="1300" height="900" as="geometry"/>
                </mxCell>
                <mxCell id="main-header" value="JUST WORK" style="rounded=0;whiteSpace=wrap;html=1;fillColor=#ffffff;strokeColor=none;fontSize=32;fontStyle=1;fontColor=#333333;align=center;" parent="1" vertex="1">
                    <mxGeometry x="50" y="50" width="1300" height="80" as="geometry"/>
                </mxCell>
                <mxCell id="search-container" value="" style="rounded=0;whiteSpace=wrap;html=1;fillColor=#ffffff;strokeColor=none;" parent="1" vertex="1">
                    <mxGeometry x="100" y="150" width="1200" height="120" as="geometry"/>
                </mxCell>
                <mxCell id="search-input" value="Search companies by name or description..." style="rounded=1;whiteSpace=wrap;html=1;fillColor=#ffffff;strokeColor=#e5e7eb;fontSize=14;fontColor=#9ca3af;align=left;spacingLeft=15;" parent="1" vertex="1">
                    <mxGeometry x="150" y="170" width="700" height="40" as="geometry"/>
                </mxCell>
                <mxCell id="industry-dropdown" value="All Industries ▼" style="rounded=1;whiteSpace=wrap;html=1;fillColor=#ffffff;strokeColor=#e5e7eb;fontSize=14;fontColor=#333333;align=left;spacingLeft=15;" parent="1" vertex="1">
                    <mxGeometry x="900" y="170" width="200" height="40" as="geometry"/>
                </mxCell>
                <mxCell id="results-text" value="50 companies found" style="text;html=1;strokeColor=none;fillColor=none;align=left;verticalAlign=middle;whiteSpace=wrap;rounded=0;fontSize=14;fontColor=#6b7280;" parent="1" vertex="1">
                    <mxGeometry x="150" y="230" width="200" height="20" as="geometry"/>
                </mxCell>
                <mxCell id="card1" value="" style="rounded=1;whiteSpace=wrap;html=1;fillColor=#ffffff;strokeColor=#e5e7eb;shadow=1;" parent="1" vertex="1">
                    <mxGeometry x="150" y="300" width="350" height="280" as="geometry"/>
                </mxCell>
                <mxCell id="card1-title" value="02 Investar LLC" style="text;html=1;strokeColor=none;fillColor=none;align=left;verticalAlign=top;whiteSpace=wrap;rounded=0;fontSize=18;fontStyle=1;fontColor=#333333;" parent="1" vertex="1">
                    <mxGeometry x="170" y="320" width="250" height="25" as="geometry"/>
                </mxCell>
                <mxCell id="card1-industry" value="Computer Programming" style="text;html=1;strokeColor=none;fillColor=none;align=left;verticalAlign=top;whiteSpace=wrap;rounded=0;fontSize=12;fontColor=#6b7280;" parent="1" vertex="1">
                    <mxGeometry x="170" y="350" width="200" height="20" as="geometry"/>
                </mxCell>
                <mxCell id="card1-location" value="Location: Minnetonka, Minnesota" style="text;html=1;strokeColor=none;fillColor=none;align=left;verticalAlign=top;whiteSpace=wrap;rounded=0;fontSize=12;fontColor=#333333;" parent="1" vertex="1">
                    <mxGeometry x="170" y="380" width="250" height="20" as="geometry"/>
                </mxCell>
                <mxCell id="card1-employees" value="Employees: 27" style="text;html=1;strokeColor=none;fillColor=none;align=left;verticalAlign=top;whiteSpace=wrap;rounded=0;fontSize=12;fontColor=#333333;" parent="1" vertex="1">
                    <mxGeometry x="170" y="405" width="150" height="20" as="geometry"/>
                </mxCell>
                <mxCell id="card1-sales" value="Sales: 1200000.0" style="text;html=1;strokeColor=none;fillColor=none;align=left;verticalAlign=top;whiteSpace=wrap;rounded=0;fontSize=12;fontColor=#333333;" parent="1" vertex="1">
                    <mxGeometry x="170" y="430" width="150" height="20" as="geometry"/>
                </mxCell>
                <mxCell id="card1-desc" value="02 Investar Llc is primarily engaged in providing computer programming services on a contract or fee basis. Establishments of this industry perform a variety of additional services, such as computer software design and analysis; modifications of custom software; and training in the use of custom sof..." style="text;html=1;strokeColor=none;fillColor=none;align=left;verticalAlign=top;whiteSpace=wrap;rounded=0;fontSize=11;fontColor=#6b7280;" parent="1" vertex="1">
                    <mxGeometry x="170" y="460" width="310" height="80" as="geometry"/>
                </mxCell>
                <mxCell id="card1-link" value="View Details →" style="text;html=1;strokeColor=none;fillColor=none;align=right;verticalAlign=bottom;whiteSpace=wrap;rounded=0;fontSize=12;fontColor=#3b82f6;fontStyle=0;" parent="1" vertex="1">
                    <mxGeometry x="350" y="550" width="130" height="20" as="geometry"/>
                </mxCell>
                <mxCell id="card2" value="" style="rounded=1;whiteSpace=wrap;html=1;fillColor=#ffffff;strokeColor=#e5e7eb;shadow=1;" parent="1" vertex="1">
                    <mxGeometry x="525" y="300" width="350" height="280" as="geometry"/>
                </mxCell>
                <mxCell id="card2-title" value="10,000 LAKES ELECTRIC LLC" style="text;html=1;strokeColor=none;fillColor=none;align=left;verticalAlign=top;whiteSpace=wrap;rounded=0;fontSize=18;fontStyle=1;fontColor=#333333;" parent="1" vertex="1">
                    <mxGeometry x="545" y="320" width="300" height="25" as="geometry"/>
                </mxCell>
                <mxCell id="card2-industry" value="Electricity Generation and Distribution" style="text;html=1;strokeColor=none;fillColor=none;align=left;verticalAlign=top;whiteSpace=wrap;rounded=0;fontSize=12;fontColor=#6b7280;" parent="1" vertex="1">
                    <mxGeometry x="545" y="350" width="250" height="20" as="geometry"/>
                </mxCell>
                <mxCell id="card2-location" value="Location: Ottertail, Minnesota" style="text;html=1;strokeColor=none;fillColor=none;align=left;verticalAlign=top;whiteSpace=wrap;rounded=0;fontSize=12;fontColor=#333333;" parent="1" vertex="1">
                    <mxGeometry x="545" y="380" width="250" height="20" as="geometry"/>
                </mxCell>
                <mxCell id="card2-employees" value="Employees: 1" style="text;html=1;strokeColor=none;fillColor=none;align=left;verticalAlign=top;whiteSpace=wrap;rounded=0;fontSize=12;fontColor=#333333;" parent="1" vertex="1">
                    <mxGeometry x="545" y="405" width="150" height="20" as="geometry"/>
                </mxCell>
                <mxCell id="card2-sales" value="Sales: 1282963.0" style="text;html=1;strokeColor=none;fillColor=none;align=left;verticalAlign=top;whiteSpace=wrap;rounded=0;fontSize=12;fontColor=#333333;" parent="1" vertex="1">
                    <mxGeometry x="545" y="430" width="150" height="20" as="geometry"/>
                </mxCell>
                <mxCell id="card2-desc" value="10,000 Lakes Electric Llc is primarily engaged in the generation, transmission, and/or distribution of electric energy for sale." style="text;html=1;strokeColor=none;fillColor=none;align=left;verticalAlign=top;whiteSpace=wrap;rounded=0;fontSize=11;fontColor=#6b7280;" parent="1" vertex="1">
                    <mxGeometry x="545" y="460" width="310" height="60" as="geometry"/>
                </mxCell>
                <mxCell id="card2-link" value="View Details →" style="text;html=1;strokeColor=none;fillColor=none;align=right;verticalAlign=bottom;whiteSpace=wrap;rounded=0;fontSize=12;fontColor=#3b82f6;" parent="1" vertex="1">
                    <mxGeometry x="725" y="550" width="130" height="20" as="geometry"/>
                </mxCell>
                <mxCell id="card3" value="" style="rounded=1;whiteSpace=wrap;html=1;fillColor=#ffffff;strokeColor=#e5e7eb;shadow=1;" parent="1" vertex="1">
                    <mxGeometry x="900" y="300" width="350" height="280" as="geometry"/>
                </mxCell>
                <mxCell id="card3-title" value="100 WATTS ELECTRIC, LLC" style="text;html=1;strokeColor=none;fillColor=none;align=left;verticalAlign=top;whiteSpace=wrap;rounded=0;fontSize=18;fontStyle=1;fontColor=#333333;" parent="1" vertex="1">
                    <mxGeometry x="920" y="320" width="300" height="25" as="geometry"/>
                </mxCell>
                <mxCell id="card3-industry" value="Electricity Generation and Distribution" style="text;html=1;strokeColor=none;fillColor=none;align=left;verticalAlign=top;whiteSpace=wrap;rounded=0;fontSize=12;fontColor=#6b7280;" parent="1" vertex="1">
                    <mxGeometry x="920" y="350" width="250" height="20" as="geometry"/>
                </mxCell>
                <mxCell id="card3-location" value="Location: Moorhead, Minnesota" style="text;html=1;strokeColor=none;fillColor=none;align=left;verticalAlign=top;whiteSpace=wrap;rounded=0;fontSize=12;fontColor=#333333;" parent="1" vertex="1">
                    <mxGeometry x="920" y="380" width="250" height="20" as="geometry"/>
                </mxCell>
                <mxCell id="card3-employees" value="Employees: 1" style="text;html=1;strokeColor=none;fillColor=none;align=left;verticalAlign=top;whiteSpace=wrap;rounded=0;fontSize=12;fontColor=#333333;" parent="1" vertex="1">
                    <mxGeometry x="920" y="405" width="150" height="20" as="geometry"/>
                </mxCell>
                <mxCell id="card3-sales" value="Sales: 626973.99" style="text;html=1;strokeColor=none;fillColor=none;align=left;verticalAlign=top;whiteSpace=wrap;rounded=0;fontSize=12;fontColor=#333333;" parent="1" vertex="1">
                    <mxGeometry x="920" y="430" width="150" height="20" as="geometry"/>
                </mxCell>
                <mxCell id="card3-desc" value="100 Watts Electric, Llc is primarily engaged in the generation, transmission, and/or distribution of electric energy for sale." style="text;html=1;strokeColor=none;fillColor=none;align=left;verticalAlign=top;whiteSpace=wrap;rounded=0;fontSize=11;fontColor=#6b7280;" parent="1" vertex="1">
                    <mxGeometry x="920" y="460" width="310" height="60" as="geometry"/>
                </mxCell>
                <mxCell id="card3-link" value="View Details →" style="text;html=1;strokeColor=none;fillColor=none;align=right;verticalAlign=bottom;whiteSpace=wrap;rounded=0;fontSize=12;fontColor=#3b82f6;" parent="1" vertex="1">
                    <mxGeometry x="1100" y="550" width="130" height="20" as="geometry"/>
                </mxCell>
                <mxCell id="card4" value="" style="rounded=1;whiteSpace=wrap;html=1;fillColor=#ffffff;strokeColor=#e5e7eb;shadow=1;" parent="1" vertex="1">
                    <mxGeometry x="150" y="620" width="350" height="280" as="geometry"/>
                </mxCell>
                <mxCell id="card4-title" value="1029 BEAUTY BAR LLC" style="text;html=1;strokeColor=none;fillColor=none;align=left;verticalAlign=top;whiteSpace=wrap;rounded=0;fontSize=18;fontStyle=1;fontColor=#333333;" parent="1" vertex="1">
                    <mxGeometry x="170" y="640" width="250" height="25" as="geometry"/>
                </mxCell>
                <mxCell id="card4-industry" value="Associations and Organizations" style="text;html=1;strokeColor=none;fillColor=none;align=left;verticalAlign=top;whiteSpace=wrap;rounded=0;fontSize=12;fontColor=#6b7280;" parent="1" vertex="1">
                    <mxGeometry x="170" y="670" width="200" height="20" as="geometry"/>
                </mxCell>
                <mxCell id="card4-location" value="Location: Minneapolis, Minnesota" style="text;html=1;strokeColor=none;fillColor=none;align=left;verticalAlign=top;whiteSpace=wrap;rounded=0;fontSize=12;fontColor=#333333;" parent="1" vertex="1">
                    <mxGeometry x="170" y="700" width="250" height="20" as="geometry"/>
                </mxCell>
                <mxCell id="card4-employees" value="Employees: 1" style="text;html=1;strokeColor=none;fillColor=none;align=left;verticalAlign=top;whiteSpace=wrap;rounded=0;fontSize=12;fontColor=#333333;" parent="1" vertex="1">
                    <mxGeometry x="170" y="725" width="150" height="20" as="geometry"/>
                </mxCell>
                <mxCell id="card4-sales" value="Sales: 545291.01" style="text;html=1;strokeColor=none;fillColor=none;align=left;verticalAlign=top;whiteSpace=wrap;rounded=0;fontSize=12;fontColor=#333333;" parent="1" vertex="1">
                    <mxGeometry x="170" y="750" width="150" height="20" as="geometry"/>
                </mxCell>
                <mxCell id="card4-desc" value="1029 Beauty Bar Llc is an organization of professional persons for the advancement of the interests of their profession." style="text;html=1;strokeColor=none;fillColor=none;align=left;verticalAlign=top;whiteSpace=wrap;rounded=0;fontSize=11;fontColor=#6b7280;" parent="1" vertex="1">
                    <mxGeometry x="170" y="780" width="310" height="60" as="geometry"/>
                </mxCell>
                <mxCell id="card4-link" value="View Details →" style="text;html=1;strokeColor=none;fillColor=none;align=right;verticalAlign=bottom;whiteSpace=wrap;rounded=0;fontSize=12;fontColor=#3b82f6;" parent="1" vertex="1">
                    <mxGeometry x="350" y="870" width="130" height="20" as="geometry"/>
                </mxCell>
                <mxCell id="card5" value="" style="rounded=1;whiteSpace=wrap;html=1;fillColor=#ffffff;strokeColor=#e5e7eb;shadow=1;" parent="1" vertex="1">
                    <mxGeometry x="525" y="620" width="350" height="280" as="geometry"/>
                </mxCell>
                <mxCell id="card5-title" value="10 ELECTRIC LLC" style="text;html=1;strokeColor=none;fillColor=none;align=left;verticalAlign=top;whiteSpace=wrap;rounded=0;fontSize=18;fontStyle=1;fontColor=#333333;" parent="1" vertex="1">
                    <mxGeometry x="545" y="640" width="250" height="25" as="geometry"/>
                </mxCell>
                <mxCell id="card5-industry" value="Electricity Generation and Distribution" style="text;html=1;strokeColor=none;fillColor=none;align=left;verticalAlign=top;whiteSpace=wrap;rounded=0;fontSize=12;fontColor=#6b7280;" parent="1" vertex="1">
                    <mxGeometry x="545" y="670" width="250" height="20" as="geometry"/>
                </mxCell>
                <mxCell id="card5-location" value="Location: Anoka, Minnesota" style="text;html=1;strokeColor=none;fillColor=none;align=left;verticalAlign=top;whiteSpace=wrap;rounded=0;fontSize=12;fontColor=#333333;" parent="1" vertex="1">
                    <mxGeometry x="545" y="700" width="250" height="20" as="geometry"/>
                </mxCell>
                <mxCell id="card5-employees" value="Employees: 1" style="text;html=1;strokeColor=none;fillColor=none;align=left;verticalAlign=top;whiteSpace=wrap;rounded=0;fontSize=12;fontColor=#333333;" parent="1" vertex="1">
                    <mxGeometry x="545" y="725" width="150" height="20" as="geometry"/>
                </mxCell>
                <mxCell id="card5-sales" value="Sales: 2463932.0" style="text;html=1;strokeColor=none;fillColor=none;align=left;verticalAlign=top;whiteSpace=wrap;rounded=0;fontSize=12;fontColor=#333333;" parent="1" vertex="1">
                    <mxGeometry x="545" y="750" width="150" height="20" as="geometry"/>
                </mxCell>
                <mxCell id="card5-desc" value="10 Electric Llc is primarily engaged in the generation, transmission, and/or distribution of electric energy for sale." style="text;html=1;strokeColor=none;fillColor=none;align=left;verticalAlign=top;whiteSpace=wrap;rounded=0;fontSize=11;fontColor=#6b7280;" parent="1" vertex="1">
                    <mxGeometry x="545" y="780" width="310" height="60" as="geometry"/>
                </mxCell>
                <mxCell id="card5-link" value="View Details →" style="text;html=1;strokeColor=none;fillColor=none;align=right;verticalAlign=bottom;whiteSpace=wrap;rounded=0;fontSize=12;fontColor=#3b82f6;" parent="1" vertex="1">
                    <mxGeometry x="725" y="870" width="130" height="20" as="geometry"/>
                </mxCell>
                <mxCell id="card6" value="" style="rounded=1;whiteSpace=wrap;html=1;fillColor=#ffffff;strokeColor=#e5e7eb;shadow=1;" parent="1" vertex="1">
                    <mxGeometry x="900" y="620" width="350" height="280" as="geometry"/>
                </mxCell>
                <mxCell id="card6-title" value="10K LLC" style="text;html=1;strokeColor=none;fillColor=none;align=left;verticalAlign=top;whiteSpace=wrap;rounded=0;fontSize=18;fontStyle=1;fontColor=#333333;" parent="1" vertex="1">
                    <mxGeometry x="920" y="640" width="250" height="25" as="geometry"/>
                </mxCell>
                <mxCell id="card6-industry" value="Associations and Organizations" style="text;html=1;strokeColor=none;fillColor=none;align=left;verticalAlign=top;whiteSpace=wrap;rounded=0;fontSize=12;fontColor=#6b7280;" parent="1" vertex="1">
                    <mxGeometry x="920" y="670" width="200" height="20" as="geometry"/>
                </mxCell>
                <mxCell id="card6-location" value="Location: Coon Rapids, Minnesota" style="text;html=1;strokeColor=none;fillColor=none;align=left;verticalAlign=top;whiteSpace=wrap;rounded=0;fontSize=12;fontColor=#333333;" parent="1" vertex="1">
                    <mxGeometry x="920" y="700" width="250" height="20" as="geometry"/>
                </mxCell>
                <mxCell id="card6-employees" value="Employees: 3" style="text;html=1;strokeColor=none;fillColor=none;align=left;verticalAlign=top;whiteSpace=wrap;rounded=0;fontSize=12;fontColor=#333333;" parent="1" vertex="1">
                    <mxGeometry x="920" y="725" width="150" height="20" as="geometry"/>
                </mxCell>
                <mxCell id="card6-sales" value="Sales: 547661.01" style="text;html=1;strokeColor=none;fillColor=none;align=left;verticalAlign=top;whiteSpace=wrap;rounded=0;fontSize=12;fontColor=#333333;" parent="1" vertex="1">
                    <mxGeometry x="920" y="750" width="150" height="20" as="geometry"/>
                </mxCell>
                <mxCell id="card6-desc" value="10K Llc is a membership organization engaged in civic, social, or fraternal activities." style="text;html=1;strokeColor=none;fillColor=none;align=left;verticalAlign=top;whiteSpace=wrap;rounded=0;fontSize=11;fontColor=#6b7280;" parent="1" vertex="1">
                    <mxGeometry x="920" y="780" width="310" height="60" as="geometry"/>
                </mxCell>
                <mxCell id="card6-link" value="View Details →" style="text;html=1;strokeColor=none;fillColor=none;align=right;verticalAlign=bottom;whiteSpace=wrap;rounded=0;fontSize=12;fontColor=#3b82f6;" parent="1" vertex="1">
                    <mxGeometry x="1100" y="870" width="130" height="20" as="geometry"/>
                </mxCell>
            </root>
        </mxGraphModel>
    </diagram>
    <diagram name="Company Detail Layout" id="detail-layout">
        <mxGraphModel dx="1951" dy="1836" grid="0" gridSize="10" guides="0" tooltips="1" connect="1" arrows="1" fold="1" page="0" pageScale="1" pageWidth="1400" pageHeight="1200" math="0" shadow="0">
            <root>
                <mxCell id="0"/>
                <mxCell id="1" parent="0"/>
                <mxCell id="detail-browser-frame" value="" style="rounded=0;whiteSpace=wrap;html=1;fillColor=#f8f9fa;strokeColor=#dee2e6;strokeWidth=2;" parent="1" vertex="1">
                    <mxGeometry x="50" y="50" width="1300" height="1100" as="geometry"/>
                </mxCell>
                <mxCell id="detail-header-section" value="" style="rounded=0;whiteSpace=wrap;html=1;fillColor=#ffffff;strokeColor=none;" parent="1" vertex="1">
                    <mxGeometry x="50" y="50" width="1300" height="80" as="geometry"/>
                </mxCell>
                <mxCell id="back-button" value="←" style="rounded=1;whiteSpace=wrap;html=1;fillColor=#ffffff;strokeColor=#e5e7eb;fontSize=20;fontColor=#333333;align=center;" parent="1" vertex="1">
                    <mxGeometry x="100" y="75" width="40" height="30" as="geometry"/>
                </mxCell>
                <mxCell id="detail-company-name" value="02 Investar LLC" style="text;html=1;strokeColor=none;fillColor=none;align=center;verticalAlign=middle;whiteSpace=wrap;rounded=0;fontSize=28;fontStyle=1;fontColor=#333333;" parent="1" vertex="1">
                    <mxGeometry x="600" y="75" width="300" height="30" as="geometry"/>
                </mxCell>
                <mxCell id="private-badge" value="Private" style="rounded=1;whiteSpace=wrap;html=1;fillColor=#e0e7ff;strokeColor=#6366f1;fontSize=12;fontColor=#6366f1;align=center;" parent="1" vertex="1">
                    <mxGeometry x="1150" y="75" width="60" height="25" as="geometry"/>
                </mxCell>
                <mxCell id="detail-content" value="" style="rounded=0;whiteSpace=wrap;html=1;fillColor=#ffffff;strokeColor=none;" parent="1" vertex="1">
                    <mxGeometry x="100" y="150" width="1200" height="950" as="geometry"/>
                </mxCell>
                <mxCell id="company-info-section" value="" style="rounded=1;whiteSpace=wrap;html=1;fillColor=#ffffff;strokeColor=#e5e7eb;shadow=1;" parent="1" vertex="1">
                    <mxGeometry x="150" y="200" width="500" height="200" as="geometry"/>
                </mxCell>
                <mxCell id="company-info-title" value="Company Information" style="text;html=1;strokeColor=none;fillColor=none;align=left;verticalAlign=top;whiteSpace=wrap;rounded=0;fontSize=16;fontStyle=1;fontColor=#333333;" parent="1" vertex="1">
                    <mxGeometry x="170" y="220" width="200" height="25" as="geometry"/>
                </mxCell>
                <mxCell id="industry-label" value="Industry:" style="text;html=1;strokeColor=none;fillColor=none;align=left;verticalAlign=top;whiteSpace=wrap;rounded=0;fontSize=12;fontColor=#6b7280;" parent="1" vertex="1">
                    <mxGeometry x="170" y="260" width="80" height="20" as="geometry"/>
                </mxCell>
                <mxCell id="industry-value" value="Computer Programming" style="text;html=1;strokeColor=none;fillColor=none;align=left;verticalAlign=top;whiteSpace=wrap;rounded=0;fontSize=12;fontColor=#333333;" parent="1" vertex="1">
                    <mxGeometry x="280" y="260" width="200" height="20" as="geometry"/>
                </mxCell>
                <mxCell id="ownership-label" value="Ownership:" style="text;html=1;strokeColor=none;fillColor=none;align=left;verticalAlign=top;whiteSpace=wrap;rounded=0;fontSize=12;fontColor=#6b7280;" parent="1" vertex="1">
                    <mxGeometry x="170" y="290" width="80" height="20" as="geometry"/>
                </mxCell>
                <mxCell id="ownership-value" value="Private" style="text;html=1;strokeColor=none;fillColor=none;align=left;verticalAlign=top;whiteSpace=wrap;rounded=0;fontSize=12;fontColor=#333333;" parent="1" vertex="1">
                    <mxGeometry x="280" y="290" width="100" height="20" as="geometry"/>
                </mxCell>
                <mxCell id="employees-label" value="Employees:" style="text;html=1;strokeColor=none;fillColor=none;align=left;verticalAlign=top;whiteSpace=wrap;rounded=0;fontSize=12;fontColor=#6b7280;" parent="1" vertex="1">
                    <mxGeometry x="170" y="320" width="80" height="20" as="geometry"/>
                </mxCell>
                <mxCell id="employees-value" value="27" style="text;html=1;strokeColor=none;fillColor=none;align=left;verticalAlign=top;whiteSpace=wrap;rounded=0;fontSize=12;fontColor=#333333;" parent="1" vertex="1">
                    <mxGeometry x="280" y="320" width="50" height="20" as="geometry"/>
                </mxCell>
                <mxCell id="sales-label" value="Annual Sales:" style="text;html=1;strokeColor=none;fillColor=none;align=left;verticalAlign=top;whiteSpace=wrap;rounded=0;fontSize=12;fontColor=#6b7280;" parent="1" vertex="1">
                    <mxGeometry x="170" y="350" width="100" height="20" as="geometry"/>
                </mxCell>
                <mxCell id="sales-value" value="1200000.0" style="text;html=1;strokeColor=none;fillColor=none;align=left;verticalAlign=top;whiteSpace=wrap;rounded=0;fontSize=12;fontColor=#333333;" parent="1" vertex="1">
                    <mxGeometry x="280" y="350" width="100" height="20" as="geometry"/>
                </mxCell>
                <mxCell id="contact-info-section" value="" style="rounded=1;whiteSpace=wrap;html=1;fillColor=#ffffff;strokeColor=#e5e7eb;shadow=1;" parent="1" vertex="1">
                    <mxGeometry x="700" y="200" width="500" height="200" as="geometry"/>
                </mxCell>
                <mxCell id="contact-info-title" value="Contact Information" style="text;html=1;strokeColor=none;fillColor=none;align=left;verticalAlign=top;whiteSpace=wrap;rounded=0;fontSize=16;fontStyle=1;fontColor=#333333;" parent="1" vertex="1">
                    <mxGeometry x="720" y="220" width="200" height="25" as="geometry"/>
                </mxCell>
                <mxCell id="address-label" value="Address:" style="text;html=1;strokeColor=none;fillColor=none;align=left;verticalAlign=top;whiteSpace=wrap;rounded=0;fontSize=12;fontColor=#6b7280;" parent="1" vertex="1">
                    <mxGeometry x="720" y="260" width="80" height="20" as="geometry"/>
                </mxCell>
                <mxCell id="address-value" value="11500 Wayzata Blvd Ste 1242" style="text;html=1;strokeColor=none;fillColor=none;align=left;verticalAlign=top;whiteSpace=wrap;rounded=0;fontSize=12;fontColor=#333333;" parent="1" vertex="1">
                    <mxGeometry x="820" y="260" width="200" height="20" as="geometry"/>
                </mxCell>
                <mxCell id="city-label" value="City:" style="text;html=1;strokeColor=none;fillColor=none;align=left;verticalAlign=top;whiteSpace=wrap;rounded=0;fontSize=12;fontColor=#6b7280;" parent="1" vertex="1">
                    <mxGeometry x="720" y="290" width="50" height="20" as="geometry"/>
                </mxCell>
                <mxCell id="city-value" value="Minnetonka" style="text;html=1;strokeColor=none;fillColor=none;align=left;verticalAlign=top;whiteSpace=wrap;rounded=0;fontSize=12;fontColor=#333333;" parent="1" vertex="1">
                    <mxGeometry x="820" y="290" width="100" height="20" as="geometry"/>
                </mxCell>
                <mxCell id="state-label" value="State:" style="text;html=1;strokeColor=none;fillColor=none;align=left;verticalAlign=top;whiteSpace=wrap;rounded=0;fontSize=12;fontColor=#6b7280;" parent="1" vertex="1">
                    <mxGeometry x="720" y="320" width="50" height="20" as="geometry"/>
                </mxCell>
                <mxCell id="state-value" value="Minnesota" style="text;html=1;strokeColor=none;fillColor=none;align=left;verticalAlign=top;whiteSpace=wrap;rounded=0;fontSize=12;fontColor=#333333;" parent="1" vertex="1">
                    <mxGeometry x="820" y="320" width="100" height="20" as="geometry"/>
                </mxCell>
                <mxCell id="postal-label" value="Postal Code:" style="text;html=1;strokeColor=none;fillColor=none;align=left;verticalAlign=top;whiteSpace=wrap;rounded=0;fontSize=12;fontColor=#6b7280;" parent="1" vertex="1">
                    <mxGeometry x="720" y="350" width="90" height="20" as="geometry"/>
                </mxCell>
                <mxCell id="postal-value" value="55305-2007" style="text;html=1;strokeColor=none;fillColor=none;align=left;verticalAlign=top;whiteSpace=wrap;rounded=0;fontSize=12;fontColor=#333333;" parent="1" vertex="1">
                    <mxGeometry x="820" y="350" width="100" height="20" as="geometry"/>
                </mxCell>
                <mxCell id="business-desc-section" value="" style="rounded=1;whiteSpace=wrap;html=1;fillColor=#ffffff;strokeColor=#e5e7eb;shadow=1;" parent="1" vertex="1">
                    <mxGeometry x="150" y="450" width="1050" height="150" as="geometry"/>
                </mxCell>
                <mxCell id="business-desc-title" value="Business Description" style="text;html=1;strokeColor=none;fillColor=none;align=left;verticalAlign=top;whiteSpace=wrap;rounded=0;fontSize=16;fontStyle=1;fontColor=#333333;" parent="1" vertex="1">
                    <mxGeometry x="170" y="470" width="200" height="25" as="geometry"/>
                </mxCell>
                <mxCell id="business-desc-text" value="02 Investar Llc is primarily engaged in providing computer programming services on a contract or fee basis. Establishments of this industry perform a variety of additional services, such as computer software design and analysis; modifications of custom software; and training in the use of custom software." style="text;html=1;strokeColor=none;fillColor=none;align=left;verticalAlign=top;whiteSpace=wrap;rounded=0;fontSize=12;fontColor=#333333;" parent="1" vertex="1">
                    <mxGeometry x="170" y="510" width="1010" height="70" as="geometry"/>
                </mxCell>
                <mxCell id="contact-persons-section" value="" style="rounded=1;whiteSpace=wrap;html=1;fillColor=#ffffff;strokeColor=#e5e7eb;shadow=1;" parent="1" vertex="1">
                    <mxGeometry x="150" y="650" width="1050" height="150" as="geometry"/>
                </mxCell>
                <mxCell id="contact-persons-title" value="👤 Contact Information" style="text;html=1;strokeColor=none;fillColor=none;align=left;verticalAlign=top;whiteSpace=wrap;rounded=0;fontSize=16;fontStyle=1;fontColor=#333333;" parent="1" vertex="1">
                    <mxGeometry x="170" y="670" width="200" height="25" as="geometry"/>
                </mxCell>
                <mxCell id="no-contacts-text" value="No contact information available for this company." style="text;html=1;strokeColor=none;fillColor=none;align=center;verticalAlign=middle;whiteSpace=wrap;rounded=0;fontSize=14;fontColor=#6b7280;fontStyle=2;" parent="1" vertex="1">
                    <mxGeometry x="500" y="730" width="400" height="30" as="geometry"/>
                </mxCell>
                <mxCell id="additional-info-section" value="" style="rounded=1;whiteSpace=wrap;html=1;fillColor=#ffffff;strokeColor=#e5e7eb;shadow=1;" parent="1" vertex="1">
                    <mxGeometry x="150" y="850" width="1050" height="200" as="geometry"/>
                </mxCell>
                <mxCell id="additional-info-title" value="Additional Information" style="text;html=1;strokeColor=none;fillColor=none;align=left;verticalAlign=top;whiteSpace=wrap;rounded=0;fontSize=16;fontStyle=1;fontColor=#333333;" parent="1" vertex="1">
                    <mxGeometry x="170" y="870" width="200" height="25" as="geometry"/>
                </mxCell>
                <mxCell id="naics-label" value="NAICS Description:" style="text;html=1;strokeColor=none;fillColor=none;align=left;verticalAlign=top;whiteSpace=wrap;rounded=0;fontSize=12;fontColor=#6b7280;" parent="1" vertex="1">
                    <mxGeometry x="170" y="920" width="150" height="20" as="geometry"/>
                </mxCell>
                <mxCell id="naics-value" value="N/A" style="text;html=1;strokeColor=none;fillColor=none;align=left;verticalAlign=top;whiteSpace=wrap;rounded=0;fontSize=12;fontColor=#333333;" parent="1" vertex="1">
                    <mxGeometry x="330" y="920" width="100" height="20" as="geometry"/>
                </mxCell>
                <mxCell id="sic-label" value="SIC Description:" style="text;html=1;strokeColor=none;fillColor=none;align=left;verticalAlign=top;whiteSpace=wrap;rounded=0;fontSize=12;fontColor=#6b7280;" parent="1" vertex="1">
                    <mxGeometry x="170" y="950" width="150" height="20" as="geometry"/>
                </mxCell>
                <mxCell id="sic-value" value="N/A" style="text;html=1;strokeColor=none;fillColor=none;align=left;verticalAlign=top;whiteSpace=wrap;rounded=0;fontSize=12;fontColor=#333333;" parent="1" vertex="1">
                    <mxGeometry x="330" y="950" width="100" height="20" as="geometry"/>
                </mxCell>
                <mxCell id="tradestyle-label" value="Tradestyle:" style="text;html=1;strokeColor=none;fillColor=none;align=left;verticalAlign=top;whiteSpace=wrap;rounded=0;fontSize=12;fontColor=#6b7280;" parent="1" vertex="1">
                    <mxGeometry x="170" y="980" width="150" height="20" as="geometry"/>
                </mxCell>
                <mxCell id="tradestyle-value" value="N/A" style="text;html=1;strokeColor=none;fillColor=none;align=left;verticalAlign=top;whiteSpace=wrap;rounded=0;fontSize=12;fontColor=#333333;" parent="1" vertex="1">
                    <mxGeometry x="330" y="980" width="100" height="20" as="geometry"/>
                </mxCell>
            </root>
        </mxGraphModel>
    </diagram>
</mxfile>